<?xml version="1.0" encoding="utf-8"?>
<!-- Generator: Adobe Illustrator 18.1.0, SVG Export Plug-In . SVG Version: 6.00 Build 0)  -->
<!DOCTYPE svg PUBLIC "-//W3C//DTD SVG 1.1//EN" "http://www.w3.org/Graphics/SVG/1.1/DTD/svg11.dtd">
<svg version="1.1" id="Layer_1" xmlns="http://www.w3.org/2000/svg" xmlns:xlink="http://www.w3.org/1999/xlink" x="0px" y="0px"
	 viewBox="-13 15 100 100" enable-background="new -13 15 100 100" xml:space="preserve">
<g>
	<path fill="#FAFAFA" d="M12.6,31.1c-0.5-0.5-1.1-0.7-1.8-0.7c-0.7,0-1.3,0.3-1.8,0.8C-5.8,47.6,2.2,82.9,3.1,86.3l-14.9,14.9
		c-0.5,0.5-0.7,1.1-0.7,1.7s0.3,1.3,0.7,1.7l9,9c0.5,0.5,1.1,0.7,1.7,0.7c0.6,0,1.3-0.2,1.7-0.7l14.9-14.9c7.2,1.9,16.3,3,24.3,3
		c9.6,0,22.7-1.5,30.8-8.9c0.5-0.5,0.8-1.1,0.8-1.8c0-0.7-0.2-1.3-0.7-1.8L12.6,31.1z"/>
	<path fill="#FAFAFA" d="M34.1,45.8c0.5,0.5,1.1,0.7,1.7,0.7s1.3-0.2,1.7-0.7L56,27.4c1.3-1.3,2-3,2-4.9c0-1.8-0.7-3.6-2-4.9
		c-1.3-1.3-3-2-4.9-2s-3.6,0.7-4.9,2L27.8,36.1c-1,1-1,2.5,0,3.5L34.1,45.8z"/>
	<path fill="#FAFAFA" d="M84.5,46.2c-1.3-1.3-3-2-4.9-2s-3.6,0.7-4.9,2L56.3,64.6c-0.5,0.5-0.7,1.1-0.7,1.7s0.3,1.3,0.7,1.7l6.3,6.3
		c0.5,0.5,1.1,0.7,1.7,0.7s1.3-0.2,1.7-0.7l18.4-18.4C87.2,53.2,87.2,48.8,84.5,46.2z"/>
</g>
</svg>
