<?xml version="1.0" encoding="utf-8"?>
<!-- Generator: Adobe Illustrator 18.0.0, SVG Export Plug-In . SVG Version: 6.00 Build 0)  -->
<!DOCTYPE svg PUBLIC "-//W3C//DTD SVG 1.1//EN" "http://www.w3.org/Graphics/SVG/1.1/DTD/svg11.dtd">
<svg version="1.1" id="Layer_1" xmlns="http://www.w3.org/2000/svg" xmlns:xlink="http://www.w3.org/1999/xlink" x="0px" y="0px"
	 viewBox="0 0 2166 512" enable-background="new 0 0 2166 512" xml:space="preserve">
<path fill="#9B59B6" d="M0,0v512h512V0H0z M469.1,390.3C459,419,447.2,446.6,437,475.2c-2.2,7-5.7,9.2-12.7,9.2
	c-125.1,0-249.9,0-375.1,0c-3.5,0-9.2,2.2-10.2-2.2c-1-4.8,3.5-7.9,5.7-11.4c52.9-62,104.6-122.7,157.3-184.9c7-7.9,7-11.4,1-19.7
	C149.3,194.4,96.6,122,43.9,48.7c-2.2-3.5-5.7-7-7-11.4c-1.3-5.4-1.3-11.4,7.9-10.2c2.2,0,4.8,0,7.9,0c122.6,0,244.2,0,367.1,0
	c9.2,0,14.9,2.2,18.4,11.4c9.2,24.1,20.6,48.3,30.8,72.4c1,2.2,4.8,5.7,0,7c-2.2,1-4.8-1-5.7-3.5C437,65.2,391,51.5,340.8,45.5
	c-81-9.2-161.3-2.5-246.1-4.8c50.5,68.9,97.5,134.3,145.4,198.5c9.2,11.4,9.2,18.4-1,29.9c-47,54-92.7,107.7-138.8,161.6
	c-5.7,7-11.4,14-17.1,20.6c1,3.5,3.5,3.5,4.8,3.5c77.8,0,155.9,2.2,234.1-1c30.8-1,60.7-5.7,89.6-19.7c21.9-10.2,39.1-25.1,50.5-47
	c2.2-3.5,3.5-9.2,7.9-7C474.9,382.3,471.1,387.1,469.1,390.3z"/>
<rect x="-67.4" y="-58.4" fill="#9B59B6" width="90" height="612"/>
<rect x="-37" y="-440" fill="#9B59B6" width="2351.9" height="450"/>
<rect x="-37" y="494.5" fill="#9B59B6" width="2351.9" height="450"/>
<g>
	<path fill="#9B59B6" d="M1906.3,226.4c-14.5,0-25.4,5.8-32.8,17.4c-7.4,11.6-11.1,26.1-11.1,43.5v3.4c0,17.6,3.7,32.1,11.1,43.6
		c7.4,11.5,18.5,17.2,33.1,17.2c14.5,0,25.4-5.7,32.9-17.2c7.5-11.5,11.2-26,11.2-43.6v-3.4c0-17.4-3.8-31.9-11.3-43.5
		C1931.9,232.2,1920.9,226.4,1906.3,226.4z"/>
	<path fill="#9B59B6" d="M1671.1,234c7.1-6.2,10.6-14.8,10.6-25.9c0-12.1-3.8-21.1-11.5-27.1c-7.6-6-18.6-9-33-9h-42.7v71.3h49
		C1654.8,243.3,1664,240.2,1671.1,234z"/>
	<path fill="#9B59B6" d="M766.2,226.4c-10.1,0-18.8,4.3-26,12.8c-7.2,8.5-11.6,19.2-13.2,32.1l0.3,0.8H804v-4
		c0-11.8-3.2-21.8-9.5-29.7C788.1,230.4,778.7,226.4,766.2,226.4z"/>
	<path fill="#9B59B6" d="M2107.5,233.4c-6.3-4.2-13.8-6.2-22.6-6.2c-14.5,0-25.3,6-32.4,18.1c-7.2,12.1-10.8,27.6-10.8,46.6v3.2
		c0,16.7,3.5,30.1,10.6,40.3c7.1,10.1,17.8,15.2,32.3,15.2c9.1,0,16.8-2.1,22.9-6.2c6.1-4.2,11.2-10,15.2-17.6v-76.6
		C2118.9,243.2,2113.8,237.6,2107.5,233.4z"/>
	<path fill="#9B59B6" d="M1651.4,267.2h-56.9v81h52.4c13.7,0,24.4-3.4,32.1-10.2c7.7-6.8,11.5-16.4,11.5-28.9
		c0-13.1-3.2-23.3-9.6-30.8C1674.6,270.9,1664.7,267.2,1651.4,267.2z"/>
	<path fill="#9B59B6" d="M493,0v512h1783V0H493z M654.1,310c0,20-6.3,35.8-19,47.6c-12.7,11.7-29.1,17.6-49.3,17.6
		c-21.5,0-38.6-5.5-51.3-16.5c-12.7-11-18.8-26.9-18.3-47.7l0.3-0.9h29.1c0,13.8,3.5,24.2,10.5,31c7,6.8,16.9,10.2,29.7,10.2
		c11.2,0,20.3-3.8,27.4-11.3c7.1-7.5,10.6-17.6,10.6-30.2V148.2h30.3V310z M834.3,295.9H726.4l-0.5,0.8c0.3,15.9,4.4,29.1,12.1,39.3
		c7.8,10.3,18.7,15.4,32.7,15.4c10.2,0,19.2-1.5,27-4.4c7.7-2.9,14.4-6.9,20.1-12.1l11.8,19.7c-5.9,5.9-13.8,10.8-23.5,14.7
		c-9.7,3.9-21.5,5.9-35.4,5.9c-23.2,0-41.6-7.7-55.3-23.1c-13.7-15.4-20.5-35.4-20.5-60v-6.8c0-23.7,7-43.4,21.1-59.1
		c14.1-15.7,30.8-23.6,50-23.6c22.4,0,39.4,6.8,50.9,20.3c11.5,13.5,17.2,31.6,17.2,54.1V295.9z M947,232.4l-15.5-0.9
		c-8,0-14.7,1.9-20.2,5.7c-5.5,3.8-9.7,9.1-12.7,16V372h-30.3V205.7h27.1l2.9,24.3c4.7-8.6,10.5-15.3,17.4-20.1
		c6.9-4.8,14.9-7.2,23.9-7.2c2.3,0,4.4,0.2,6.5,0.5c2,0.4,3.7,0.7,5.1,1.2L947,232.4z M1207.4,372h-30.3v-99.8
		c0-16.4-2.8-28-8.5-34.8c-5.6-6.8-14-10.2-25.2-10.2c-10.4,0-18.7,3.6-25.1,10.8c-6.4,7.2-10.2,16.2-11.3,27.2v1.2V372h-30.4v-99.8
		c0-15.6-2.9-27-8.7-34.2c-5.8-7.2-14.1-10.8-25-10.8c-9.2,0-16.8,1.9-22.8,5.7c-5.9,3.8-10.5,9.1-13.7,16V372h-30.3V205.7h27.1
		l2.2,21.8c5.4-7.9,12.3-14,20.7-18.4c8.4-4.4,18.1-6.5,29.1-6.5c11.1,0,20.6,2.6,28.5,7.7c7.9,5.1,13.9,12.8,17.9,23.1
		c5.2-9.4,12.1-16.9,20.8-22.4s18.7-8.3,30.1-8.3c16.9,0,30.3,5.8,40.1,17.4c9.8,11.6,14.8,29.1,14.8,52.5V372z M1360.5,361.5
		c-11.9,9.1-27.5,13.7-46.8,13.7c-21.2,0-37.9-5.4-50.1-16.1c-12.2-10.8-18-23.3-17.4-37.7l0.3-0.9h28.9c0.5,10.7,4.5,18.5,12,23.5
		c7.5,4.9,16.2,7.4,26.3,7.4c10.8,0,19.2-2.2,25.3-6.5c6.1-4.4,9.1-10.1,9.1-17.1c0-6.7-2.5-12.1-7.6-16.5
		c-5.1-4.3-14.7-8-28.8-11.2c-20.2-4.4-35.4-10.4-45.6-17.9c-10.2-7.5-15.3-17.8-15.3-30.8c0-13.5,5.7-25,17.2-34.5
		c11.5-9.5,26.4-14.3,44.9-14.3c19.4,0,34.8,5,46.2,14.9c11.4,9.9,16.9,22,16.4,36.3l-0.3,0.9h-28.9c0-7.3-3.1-13.8-9.1-19.6
		c-6.1-5.8-14.2-8.7-24.2-8.7c-10.8,0-18.8,2.4-24,7.1c-5.2,4.7-7.8,10.4-7.8,17.1c0,6.6,2.3,11.7,6.9,15.5
		c4.6,3.8,14,7.2,28.1,10.1c21,4.5,36.6,10.6,46.9,18.4c10.2,7.7,15.4,18.1,15.4,31.1C1378.4,340.5,1372.4,352.4,1360.5,361.5z
		 M1445.9,161.8l-24.6,53.2h-14.9l9.2-52.7v-30.1h30.3V161.8z M1701,355.8c-13.3,10.8-31.3,16.2-54,16.2h-82.7V148.2h73
		c23.4,0,41.7,5,54.9,15.1c13.2,10.1,19.8,25.2,19.8,45.4c0,9.9-3.2,18.8-9.5,26.7c-6.4,7.8-14.7,13.7-25.1,17.4
		c13.5,2.9,24.2,9.5,31.9,19.8c7.7,10.4,11.6,22.4,11.6,36.1C1720.9,329.3,1714.3,345,1701,355.8z M1792.5,372h-30.3V132.2h30.3V372
		z M1981,290.7c0,24.8-6.7,45.1-20,60.9c-13.3,15.8-31.5,23.7-54.4,23.7c-23,0-41.1-7.9-54.5-23.8c-13.4-15.8-20.1-36.1-20.1-60.8
		v-3.4c0-24.6,6.7-44.9,20-60.8c13.3-15.9,31.4-23.9,54.3-23.9c23.1,0,41.3,7.9,54.7,23.8c13.4,15.9,20.1,36.2,20.1,60.9V290.7z
		 M2153.1,372.9c0,21.3-6.2,37.7-18.6,49.1c-12.4,11.4-30.3,17.1-53.7,17.1c-8,0-16.6-1.1-25.9-3.3c-9.3-2.2-17.4-5.2-24.5-9
		l7.7-23.5c5.4,3.1,12,5.6,19.7,7.5c7.7,1.9,15.3,2.8,22.8,2.8c14.8,0,25.5-3.4,32.2-10.1c6.7-6.7,10.1-16.9,10.1-30.7v-18.8
		c-5.4,7-11.9,12.2-19.5,15.8c-7.6,3.5-16.3,5.3-26.1,5.3c-20.4,0-36.4-7.4-48.1-22.1c-11.7-14.8-17.5-34.1-17.5-58v-3.2
		c0-26.8,5.8-48.3,17.5-64.7c11.7-16.4,27.8-24.6,48.4-24.6c10.6,0,19.8,2.1,27.8,6.4c8,4.3,14.7,10.4,20,18.4l3.7-21.7h24.1V372.9z
		"/>
</g>
</svg>
