<?xml version="1.0" encoding="utf-8"?>
<!-- Generator: Adobe Illustrator 18.0.0, SVG Export Plug-In . SVG Version: 6.00 Build 0)  -->
<!DOCTYPE svg PUBLIC "-//W3C//DTD SVG 1.1//EN" "http://www.w3.org/Graphics/SVG/1.1/DTD/svg11.dtd">
<svg version="1.1" id="Capa_1" xmlns:sketch="http://www.bohemiancoding.com/sketch/ns"
	 xmlns="http://www.w3.org/2000/svg" xmlns:xlink="http://www.w3.org/1999/xlink" x="0px" y="0px" viewBox="48 128 432 320"
	 enable-background="new 48 128 432 320" xml:space="preserve">
<title>icon 131 cloud error</title>
<desc>Created with Sketch.</desc>
<g>
	<rect x="256" y="400" fill="#2C3E50" width="16" height="16"/>
	<path fill="#2C3E50" d="M430.4,246.4c-8-40-43.2-70.4-86.4-70.4c-14.4,0-27.2,3.2-38.4,9.6c-19.2-35.2-56-57.6-97.6-57.6
		c-62.4,0-112,49.6-112,112c0,1.6,0,4.8,0,6.4c-28.8,12.8-48,40-48,73.6c0,44.8,35.2,80,80,80h60.8L160,448h208l-28.8-48H400
		c44.8,0,80-35.2,80-80C480,286.4,459.2,257.6,430.4,246.4z M339.2,432h-152L264,304L339.2,432z M400,384h-70.4L264,272l-65.6,112
		H128c-35.2,0-64-28.8-64-64c0-30.4,20.8-56,49.6-62.4c-1.6-6.4-1.6-11.2-1.6-17.6c0-52.8,43.2-96,96-96c41.6,0,76.8,27.2,91.2,64
		c12.8-9.6,28.8-16,44.8-16c38.4,0,68.8,28.8,72,65.6c27.2,6.4,48,32,48,62.4C464,355.2,435.2,384,400,384z"/>
	<rect x="256" y="336" fill="#2C3E50" width="16" height="48"/>
</g>
</svg>
